# xmcd
#
# Track frame offsets: 
#        150
#        21012
#        39772
#        58169
#        79101
#        98667
#        122785
#        144365
#        161814
#        180890
#        200099
#        223148
#
# Disc length: 3245 seconds
#
# Revision: 0
# Processed by: cddbd v1.5.1PL0 Copyright (c) Steve Scherf et al.
# Submitted via: ExactAudioCopy v0.95a5
#
DISCID=9f0cab0c
DTITLE=孫悅 - 祝你平安
DYEAR=1900
DGENRE=Pop
TTITLE0=為了這一天
TTITLE1=祝你平安
TTITLE2=幸福快車
TTITLE3=圓夢
TTITLE4=歡樂中國年
TTITLE5=你是一個不懂愛的人
TTITLE6=放開你的手
TTITLE7=尋尋覓覓我的愛
TTITLE8=愛人辛苦
TTITLE9=今年流行浪漫
TTITLE10=習慣了
TTITLE11=浸透
EXTD=
EXTT0=
EXTT1=
EXTT2=
EXTT3=
EXTT4=
EXTT5=
EXTT6=
EXTT7=
EXTT8=
EXTT9=
EXTT10=
EXTT11=
PLAYORDER=
